<svg width="105" height="107" viewBox="0 0 105 107" fill="none" xmlns="http://www.w3.org/2000/svg">
<path d="M81.5969 -6.27074C74.8332 0.47635 66.5407 9.63156 63.9208 19.9721C62.6133 25.1333 62.7202 30.5862 65.1371 36.1866C67.5551 41.7898 72.2946 47.5631 80.2914 53.3472C100.638 68.0637 119.404 67.5046 133.231 68.1652C140.122 68.4945 145.867 69.1276 149.901 72.2066C153.955 75.301 156.206 80.799 156.32 90.6557L156.025 90.6481L155.73 90.6413C155.617 80.8338 153.374 75.5582 149.539 72.6307C145.683 69.688 140.142 69.0489 133.222 68.7183C119.425 68.0592 100.463 68.6239 79.9425 53.781C71.883 47.9515 67.0617 42.1007 64.5924 36.3793C62.1221 30.655 62.0152 25.0814 63.3467 19.8256C66.0052 9.3323 74.4005 0.0866972 81.1614 -6.65759L81.5969 -6.27074ZM105.951 -61.2766C99.1876 -54.5295 90.8951 -45.3742 88.2752 -35.0337C87.5823 -32.2983 87.2859 -29.4809 87.5209 -26.6031C90.4102 -36.7359 98.5265 -45.6563 105.099 -52.2129L105.536 -51.8265C98.7718 -45.0794 90.4794 -35.9243 87.8595 -25.5837C87.808 -25.3803 87.7586 -25.1766 87.7116 -24.9723C87.8462 -24.0838 88.0341 -23.1902 88.2769 -22.2917C91.9587 -30.4751 98.5849 -37.6709 104.118 -43.1907L104.555 -42.8043C98.8677 -37.1315 92.101 -29.7557 88.533 -21.405C88.7767 -20.6205 89.0648 -19.833 89.3978 -19.0421C93.1312 -25.0791 98.1256 -30.4215 102.453 -34.7381L102.888 -34.3512C98.4697 -29.9436 93.3995 -24.508 89.6838 -18.386C89.9547 -17.7871 90.2522 -17.1863 90.5776 -16.5838C93.5979 -20.4929 96.9508 -24.014 99.9774 -27.0332L100.414 -26.6468C97.3283 -23.5691 93.9257 -19.9896 90.8877 -16.0258C91.0874 -15.6741 91.2965 -15.3218 91.5156 -14.9691C93.2339 -16.8703 94.9607 -18.6439 96.5923 -20.2715L97.0277 -19.8846C95.3555 -18.2166 93.5892 -16.4019 91.8389 -14.458C91.8753 -14.4017 91.9125 -14.3457 91.9494 -14.2894C92.0562 -14.3964 92.1619 -14.5038 92.2679 -14.6096L92.7034 -14.2227C92.5624 -14.0821 92.4221 -13.9392 92.2798 -13.7964C95.0072 -9.79311 99.0196 -5.72808 104.646 -1.65858C124.992 13.0578 143.758 12.4988 157.585 13.1594C164.477 13.4886 170.221 14.1218 174.255 17.2007C178.309 20.2952 180.56 25.793 180.674 35.6499L180.379 35.6422L180.085 35.635C179.972 25.8277 177.729 20.5524 173.894 17.6249C170.038 14.6822 164.496 14.0431 157.576 13.7125C143.78 13.0534 124.818 13.618 104.297 -1.22479C98.6837 -5.28492 94.6419 -9.35583 91.8707 -13.3856C90.8516 -12.3569 89.8042 -11.2773 88.7542 -10.1489C88.8566 -9.88935 88.9635 -9.62935 89.0758 -9.36917C91.4938 -3.76597 96.2333 2.00727 104.23 7.79144C124.576 22.5079 143.342 21.9488 157.169 22.6094C164.061 22.9387 169.806 23.5718 173.84 26.6508C177.893 29.7452 180.144 35.2435 180.258 45.1004L179.963 45.0923L179.669 45.0855C179.556 35.2782 177.313 30.0024 173.478 27.0749C169.622 24.1322 164.08 23.4931 157.161 23.1625C143.364 22.5034 124.402 23.0681 103.881 8.22523C95.8217 2.3957 90.9995 -3.45471 88.5303 -9.17607C88.4581 -9.34337 88.3876 -9.51084 88.3194 -9.67788C87.6129 -8.91019 86.9058 -8.1214 86.2061 -7.31216C86.4727 -5.02351 87.08 -2.69828 88.0947 -0.346941C90.5128 5.25616 95.2516 11.0301 103.248 16.8141C123.594 31.5304 142.361 30.9715 156.187 31.6321C163.079 31.9613 168.824 32.5946 172.858 35.6734C176.912 38.7679 179.163 44.2662 179.277 54.1234L178.982 54.1158L178.688 54.1085C178.575 44.3007 176.331 39.0251 172.496 36.0976C168.64 33.1549 163.098 32.5158 156.179 32.1852C142.382 31.5261 123.42 32.0906 102.899 17.2479C94.8399 11.4184 90.0184 5.56753 87.5492 -0.153844C86.5948 -2.36536 85.9945 -4.55457 85.6924 -6.71145C85.5959 -6.59796 85.499 -6.48462 85.4029 -6.37037C85.1424 -5.98865 84.888 -5.60294 84.6371 -5.21524C84.0229 -0.924896 84.4587 3.54172 86.4284 8.10614C88.8465 13.7093 93.5861 19.4826 101.583 25.2667C121.929 39.9831 140.695 39.4241 154.522 40.0847C161.414 40.414 167.158 41.0471 171.192 44.1261C175.246 47.2205 177.498 52.7189 177.612 62.576L177.316 62.5676L177.022 62.5603C176.909 52.7531 174.666 47.4777 170.83 44.5502C166.975 41.6075 161.433 40.9684 154.513 40.6378C140.716 39.9787 121.755 40.5433 101.234 25.7005C93.1744 19.871 88.353 14.0201 85.8838 8.29877C84.0632 4.07997 83.5266 -0.057101 83.9034 -4.04529C83.4428 -2.84981 83.049 -1.63595 82.7371 -0.404793C81.4295 4.75647 81.5369 10.21 83.9538 15.8105C86.3719 21.4137 91.1114 27.187 99.1082 32.9711C119.454 47.6874 138.22 47.129 152.046 47.7896C158.938 48.1188 164.683 48.752 168.717 51.8309C172.771 54.9254 175.022 60.4231 175.136 70.2801L174.841 70.272L174.547 70.2652C174.434 60.4575 172.19 55.1817 168.354 52.2542C164.499 49.3119 158.958 48.6728 152.039 48.3422C138.242 47.6831 119.28 48.2476 98.7593 33.4049C90.6996 27.5753 85.8771 21.7243 83.4078 16.0028C80.9377 10.2787 80.832 4.70519 82.1635 -0.550526C82.2337 -0.82778 82.3078 -1.10439 82.3859 -1.37988C81.0803 1.10686 80.0269 3.69302 79.3516 6.35822C78.0441 11.5194 78.1511 16.9723 80.5679 22.5727C82.986 28.1759 87.7255 33.9492 95.7222 39.7333C116.068 54.4498 134.835 53.8907 148.661 54.5513C155.553 54.8805 161.298 55.5137 165.332 58.5927C169.386 61.6871 171.637 67.1855 171.751 77.0426L171.456 77.035L171.162 77.0282C171.048 67.2205 168.805 61.9443 164.97 59.0168C161.114 56.0741 155.573 55.435 148.653 55.1044C134.856 54.4453 115.894 55.0099 95.3733 40.1671C87.3138 34.3376 82.4925 28.4868 80.0233 22.7654C77.5529 17.041 77.4468 11.4671 78.7784 6.21119C79.5267 3.25775 80.7278 0.402436 82.2207 -2.32531C79.0145 2.06641 76.325 6.89805 75.0273 12.0202C73.7198 17.1813 73.8267 22.6342 76.2436 28.2347C78.6616 33.8378 83.4012 39.6111 91.3979 45.3953C111.744 60.1117 130.51 59.5526 144.337 60.2132C151.229 60.5425 156.973 61.1756 161.007 64.2546C165.061 67.349 167.312 72.847 167.426 82.7037L167.131 82.6961L166.837 82.6893C166.723 72.8818 164.481 67.6063 160.646 64.6787C156.79 61.736 151.248 61.097 144.328 60.7664C130.532 60.1072 111.57 60.6719 91.049 45.8291C82.9895 39.9995 78.1682 34.1487 75.6989 28.4273C73.2286 22.7031 73.1217 17.1294 74.4532 11.8736C76.0398 5.61129 79.6704 -0.206251 83.7765 -5.31319C83.9186 -5.65008 84.065 -5.98574 84.2172 -6.31936C84.2185 -6.32662 84.2195 -6.33395 84.2208 -6.34122C78.2697 -0.0448653 72.0384 7.82009 69.832 16.5279C68.5244 21.6892 68.631 27.1432 71.048 32.7437C73.4661 38.3468 78.2056 44.1203 86.2023 49.9043C106.548 64.6208 125.315 64.0617 139.141 64.7223C146.033 65.0516 151.777 65.6841 155.811 68.7628C159.865 71.8573 162.117 77.3557 162.231 87.2128L161.936 87.2052L161.642 87.1979C161.529 77.3902 159.285 72.1145 155.449 69.187C151.594 66.2444 146.052 65.606 139.133 65.2754C125.336 64.6163 106.374 65.1809 85.8534 50.3381C77.7937 44.5085 72.972 38.657 70.5028 32.9356C68.0326 27.2113 67.9269 21.638 69.2584 16.3822C71.5803 7.21762 78.2772 -0.99519 84.4402 -7.42108C84.5023 -7.69998 84.5687 -7.97824 84.6389 -8.25539C84.8735 -9.18145 85.1527 -10.0978 85.4716 -11.0036C85.5409 -12.9399 85.8321 -14.8441 86.3043 -16.708C86.3651 -16.948 86.4295 -17.1872 86.4962 -17.4259C86.3168 -20.0101 86.554 -22.5436 87.1134 -25.0098C86.5993 -28.4967 86.871 -31.9007 87.702 -35.1807C90.3606 -45.6739 98.755 -54.9192 105.516 -61.6634L105.951 -61.2766ZM75.1618 -3.69355C68.3981 3.05355 60.1056 12.2087 57.4857 22.5493C56.1782 27.7105 56.2851 33.1633 58.702 38.7638C61.1201 44.367 65.8595 50.1403 73.8563 55.9244C94.2023 70.6407 112.968 70.0823 126.795 70.7428C133.686 71.0721 139.431 71.7052 143.465 74.7842C147.519 77.8787 149.77 83.3764 149.884 93.2333L149.589 93.2257L149.295 93.2185C149.182 83.4108 146.938 78.135 143.103 75.2075C139.247 72.2651 133.706 71.6261 126.787 71.2955C112.99 70.6364 94.0282 71.2009 73.5074 56.3582C65.448 50.5287 60.6258 44.6782 58.1565 38.9569C55.6861 33.2326 55.58 27.6586 56.9116 22.4028C59.5701 11.9096 67.9646 2.66434 74.7255 -4.07994L75.1618 -3.69355ZM68.377 -1.7383C61.6133 5.00876 53.3203 14.1632 50.7004 24.5037C49.3928 29.665 49.5002 35.1185 51.9172 40.7191C54.3353 46.3222 59.0747 52.0956 67.0715 57.8797C87.4177 72.5961 106.184 72.037 120.011 72.6976C126.902 73.0269 132.647 73.6594 136.68 76.7382C140.734 79.8326 142.986 85.3311 143.1 95.1881L142.805 95.1805L142.51 95.1737C142.397 85.3658 140.154 80.0898 136.319 77.1623C132.463 74.2197 126.922 73.5814 120.002 73.2508C106.205 72.5916 87.2434 73.1562 66.7226 58.3135C58.6629 52.4838 53.8412 46.6323 51.372 40.9109C48.9019 35.1868 48.7954 29.6136 50.1268 24.358C52.7853 13.8647 61.1806 4.61913 67.9415 -2.12516L68.377 -1.7383ZM61.3878 -0.171088C54.624 6.57601 46.3316 15.7311 43.7117 26.0718C42.4041 31.233 42.5111 36.6858 44.9279 42.2863C47.346 47.8895 52.0855 53.6627 60.0823 59.4469C80.4285 74.1634 99.1947 73.6043 113.021 74.2648C119.913 74.5941 125.658 75.2273 129.692 78.3062C133.746 81.4007 135.997 86.8996 136.11 96.7566L135.816 96.7485L135.521 96.7409C135.408 86.9336 133.165 81.6579 129.33 78.7303C125.474 75.7877 119.932 75.1486 113.013 74.818C99.2159 74.1588 80.2543 74.7235 59.7334 59.8807C51.6738 54.0511 46.8517 48.2008 44.3824 42.4794C41.9121 36.755 41.806 31.1811 43.1375 25.9252C45.7961 15.432 54.1906 6.18679 60.9514 -0.55748L61.3878 -0.171088ZM54.3008 1.20745C47.5371 7.95454 39.2446 17.1098 36.6247 27.4503C35.3172 32.6114 35.4242 38.0644 37.841 43.6648C40.2591 49.268 44.999 55.0421 52.9958 60.8263C73.3419 75.5425 92.1083 74.9836 105.935 75.6442C112.827 75.9735 118.571 76.6059 122.605 79.6847C126.659 82.7792 128.91 88.2775 129.024 98.1347L128.729 98.1271L128.435 98.1203C128.321 88.3125 126.078 83.0364 122.243 80.1089C118.387 77.1662 112.846 76.5271 105.926 76.1965C92.129 75.5374 73.1672 76.102 52.6464 61.2592C44.5869 55.4296 39.7655 49.5789 37.2963 43.8575C34.826 38.1331 34.7199 32.5592 36.0515 27.3033C38.7101 16.8102 47.1051 7.56562 53.8659 0.821429L54.3008 1.20745ZM47.1996 2.55383C40.4359 9.30088 32.1435 18.4561 29.5235 28.7967C28.216 33.9578 28.323 39.4108 30.7398 45.0112C33.1579 50.6144 37.8978 56.3884 45.8946 62.1726C66.2406 76.8887 85.0063 76.3305 98.8329 76.991C105.724 77.3203 111.469 77.9528 115.503 81.0316C119.557 84.126 121.808 89.6243 121.922 99.4815L121.628 99.4735L121.333 99.4667C121.22 89.6588 118.976 84.3832 115.141 81.4557C111.285 78.5131 105.744 77.8735 98.8247 77.5429C85.0278 76.8837 66.0661 77.4485 45.5452 62.6056C37.4857 56.776 32.6635 50.9257 30.1943 45.2043C27.724 39.48 27.6178 33.906 28.9494 28.6501C31.608 18.1571 40.003 8.91247 46.7638 2.16826L47.1996 2.55383ZM40.1408 3.98693C33.3771 10.734 25.0847 19.8893 22.4647 30.2298C21.1572 35.3909 21.2642 40.8439 23.681 46.4443C26.0991 52.0475 30.8381 57.822 38.835 63.6062C59.1811 78.3225 77.9474 77.7636 91.7741 78.4242C98.6657 78.7534 104.41 79.3859 108.444 82.4647C112.498 85.5591 114.75 91.0575 114.863 100.915L114.568 100.907L114.275 100.9C114.161 91.0919 111.918 85.8163 108.082 82.8888C104.226 79.9462 98.6855 79.3066 91.7659 78.976C77.969 78.3168 59.0065 78.882 38.4856 64.0392C30.4262 58.2096 25.6047 52.3588 23.1355 46.6374C20.6652 40.9131 20.559 35.3391 21.8906 30.0832C24.5492 19.5902 32.9442 10.3456 39.705 3.60137L40.1408 3.98693ZM33.1713 5.59332C26.4076 12.3404 18.1152 21.4956 15.4953 31.8362C14.1877 36.9974 14.2947 42.4502 16.7115 48.0507C19.1296 53.6538 23.8691 59.4272 31.8659 65.2113C52.2121 79.9278 70.9782 79.3687 84.805 80.0292C91.6967 80.3585 97.4414 80.9917 101.475 84.0706C105.529 87.1651 107.78 92.6639 107.894 102.521L107.6 102.513L107.305 102.506C107.192 92.6983 104.948 87.4227 101.113 84.4952C97.257 81.5525 91.7161 80.913 84.7964 80.5824C70.9995 79.9232 52.0379 80.488 31.517 65.6451C23.4574 59.8155 18.6352 53.9652 16.166 48.2438C13.6957 42.5194 13.5896 36.9455 14.9211 31.6896C17.5797 21.1965 25.9742 11.9512 32.735 5.20693L33.1713 5.59332ZM26.3252 7.43326C19.5615 14.1803 11.2685 23.3348 8.64861 33.6753C7.34101 38.8366 7.44846 44.2901 9.86539 49.8906C12.2835 55.4938 17.0229 61.2671 25.0197 67.0512C45.3659 81.7677 64.1321 81.2086 77.9588 81.8692C84.8505 82.1985 90.5953 82.8316 94.6292 85.9106C98.683 89.005 100.934 94.503 101.048 104.36L100.753 104.352L100.458 104.345C100.345 94.5374 98.1024 89.2614 94.2669 86.3338C90.4112 83.3913 84.8698 82.7529 77.9503 82.4223C64.1534 81.7632 45.1917 82.3278 24.6708 67.485C16.6111 61.6554 11.7895 55.8039 9.32022 50.0824C6.85012 44.3584 6.74357 38.7852 8.07499 33.5296C10.7335 23.0363 19.1289 13.7907 25.8898 7.04641L26.3252 7.43326ZM19.6266 9.54575C12.8629 16.2928 4.56994 25.4473 1.95002 35.7878C0.642417 40.949 0.749871 46.4025 3.1668 52.0031C5.58492 57.6062 10.3244 63.3796 18.3211 69.1637C38.6673 83.8801 57.4335 83.3211 71.2602 83.9817C78.1517 84.3109 83.8962 84.9434 87.9301 88.0222C91.9842 91.1167 94.2349 96.6154 94.3486 106.473L94.0544 106.465L93.7599 106.458C93.6467 96.6499 91.4038 91.3739 87.5683 88.4463C83.7126 85.5037 78.1713 84.8654 71.2517 84.5348C57.4549 83.8757 38.493 84.4402 17.9722 69.5975C9.91256 63.7679 5.09086 57.9164 2.62163 52.1949C0.1515 46.4709 0.044979 40.8977 1.3764 35.642C4.03496 25.1488 12.4303 15.9032 19.1912 9.15889L19.6266 9.54575ZM85.5625 -7.7422C85.4933 -7.60707 85.4262 -7.47104 85.3586 -7.33534C85.4319 -7.43978 85.5042 -7.54485 85.5781 -7.64881C85.5747 -7.68173 85.5715 -7.71465 85.5683 -7.74755C85.5665 -7.74567 85.5643 -7.74409 85.5625 -7.7422ZM85.4767 -9.08417C85.4277 -8.91483 85.38 -8.74519 85.334 -8.57519C85.385 -8.67133 85.436 -8.76753 85.4877 -8.86335C85.484 -8.937 85.4798 -9.0106 85.4767 -9.08417ZM87.6747 -11.4356C87.2919 -10.8284 86.9226 -10.2138 86.5673 -9.5929C86.737 -9.76329 86.9046 -9.93315 87.0723 -10.1005L87.2705 -9.92368C87.4829 -10.1975 87.6971 -10.4692 87.9124 -10.7391C87.8289 -10.9714 87.7507 -11.2038 87.6747 -11.4356ZM87.0975 -13.4761C86.7177 -12.6233 86.3681 -11.7611 86.0585 -10.8882C86.0474 -10.5497 86.0434 -10.2102 86.0465 -9.86979C86.4914 -10.6471 86.9603 -11.4129 87.4467 -12.1681C87.3177 -12.6053 87.2006 -13.0411 87.0975 -13.4761ZM91.447 -14.0177C90.8544 -13.3519 90.2639 -12.672 89.6809 -11.9776C90.3071 -12.6299 90.9293 -13.2624 91.5391 -13.8768C91.5081 -13.9237 91.4777 -13.9708 91.447 -14.0177ZM90.5114 -15.5308C89.6654 -14.4065 88.8508 -13.252 88.0824 -12.0701C88.1636 -11.8042 88.2501 -11.5379 88.3414 -11.2712C89.2515 -12.3921 90.1821 -13.479 91.1188 -14.5273C90.9079 -14.8622 90.7052 -15.1966 90.5114 -15.5308ZM89.3272 -17.7855C88.668 -16.6642 88.0557 -15.5208 87.5025 -14.3569C87.6063 -13.8443 87.7278 -13.3301 87.8678 -12.8143C88.6093 -13.9318 89.3888 -15.0245 90.196 -16.0882C89.8826 -16.6551 89.5933 -17.2208 89.3272 -17.7855ZM86.6758 -15.7095C86.471 -14.7844 86.3138 -13.85 86.2069 -12.9077C86.4223 -13.4226 86.6509 -13.9333 86.8894 -14.4406C86.8066 -14.8648 86.7353 -15.2877 86.6758 -15.7095ZM88.1931 -20.5801C87.7701 -19.519 87.399 -18.4433 87.0909 -17.3534C87.1398 -16.685 87.2173 -16.0135 87.3249 -15.3389C87.8507 -16.3904 88.421 -17.4249 89.0296 -18.4398C89.0021 -18.5022 88.9738 -18.5642 88.9468 -18.6265C88.665 -19.2796 88.4147 -19.9312 88.1931 -20.5801ZM87.401 -23.4244C87.1588 -22.013 87.0265 -20.5821 87.0251 -19.134C87.2915 -19.9159 87.5877 -20.6901 87.9104 -21.4559C87.7114 -22.1146 87.5418 -22.7708 87.401 -23.4244Z" fill="url(#paint0_radial_1_189)" fill-opacity="0.58"/>
<defs>
<radialGradient id="paint0_radial_1_189" cx="0" cy="0" r="1" gradientUnits="userSpaceOnUse" gradientTransform="translate(78.981 40.641) rotate(44.6553) scale(82.2368 83.1473)">
<stop stop-color="white"/>
<stop offset="1" stop-color="#1E1E1E" stop-opacity="0"/>
<stop offset="1" stop-color="#0E0E35" stop-opacity="0"/>
<stop offset="1" stop-color="white" stop-opacity="0"/>
</radialGradient>
</defs>
</svg>
